<?xml version="1.0" encoding="UTF-8"?>
<svg width="32" height="32" version="1.1" xmlns="http://www.w3.org/2000/svg" xmlns:xlink="http://www.w3.org/1999/xlink">
    <style>
        @media (prefers-color-scheme: dark) {
            .a {fill: #f0f0f0}
        }
    </style>
    <defs>
        <radialGradient id="b" cx="20.721" cy="9.8917" r="15" gradientTransform="translate(-8.354 -4.234) scale(1.5221)"
            gradientUnits="userSpaceOnUse">
            <stop style="stop-color:#73af1f" offset="0" />
            <stop style="stop-color:#64981b" offset="1" />
        </radialGradient>
    </defs>
    <g>
        <path class="a" d="M1 1v30h3a2 2 0 0 0 2-2V5c0-1-1-1-2-1V3c2 0 3-1 3-2Zm8 0v16c5-7 12-4 12 2v11.143C26.825 28.083 31 22.53 31 16c0-8.284-6.716-15-15-15Zm5.322 14.215C12.692 15.266 10.75 16.25 9 18v11a2 2 0 0 0 2 2h5a2 2 0 0 0 2-2v-9c0-3.375-1.582-4.851-3.678-4.785z"
            style="fill-rule:evenodd;fill:url(#b)" />
    </g>
</svg>