<svg xmlns="http://www.w3.org/2000/svg" viewBox="0 0 54.64 44.83"><defs><style>.cls-1{fill:#007484;}</style></defs><title>logo_srdk_small</title><g id="Warstwa_2" data-name="Warstwa 2"><g id="Warstwa_1-2" data-name="Warstwa 1"><path class="cls-1" d="M20.78,16.52a4.27,4.27,0,0,0-4.26-4.26H6.71a5.55,5.55,0,0,1,0-11.1H20.19V0H6.71a6.71,6.71,0,0,0,0,13.42h9.81a3.1,3.1,0,0,1,0,6.19H0v1.17H16.52a4.27,4.27,0,0,0,4.26-4.26"/><path class="cls-1" d="M25.22,13.44H45.63L53,20.79h1.64l-7.35-7.35h.64A6.71,6.71,0,1,0,47.92,0H24.05V20.79h1.17Zm0-12.26h22.7a5.55,5.55,0,0,1,0,11.1H25.22Z"/><path class="cls-1" d="M53,44.83h1.64l-7.38-7.39a6.72,6.72,0,0,0,6.15-6.68V24H52.25v6.72A5.55,5.55,0,0,1,46.7,36.3H35V24H33.86V44.82H35V37.47H45.64Z"/><path class="cls-1" d="M20.19,24H0V44.82H20.19a10.39,10.39,0,0,0,0-20.78m0,19.62h-19V25.21h19a9.23,9.23,0,1,1,0,18.45"/></g></g></svg>