<?xml version="1.0" standalone="no"?>
<!DOCTYPE svg PUBLIC "-//W3C//DTD SVG 20010904//EN"
 "http://www.w3.org/TR/2001/REC-SVG-20010904/DTD/svg10.dtd">
<svg version="1.0" xmlns="http://www.w3.org/2000/svg"
 width="260.000000pt" height="260.000000pt" viewBox="0 0 260.000000 260.000000"
 preserveAspectRatio="xMidYMid meet">
<metadata>
Created by potrace 1.11, written by Peter Selinger 2001-2013
</metadata>
<g transform="translate(0.000000,260.000000) scale(0.100000,-0.100000)"
fill="#000000" stroke="none">
<path d="M110 2413 c-2 -907 0 -2296 4 -2300 2 -3 48 -4 102 -4 60 1 102 -3
111 -10 10 -9 12 -9 8 2 -4 11 6 14 40 15 29 1 42 -3 39 -10 -3 -6 1 -3 9 7
16 20 32 23 21 4 -4 -6 5 1 19 16 15 16 32 25 39 21 6 -4 8 -3 5 3 -4 6 1 28
10 49 15 35 16 129 17 989 1 523 -2 976 -6 1009 -15 108 -43 136 -143 139 -47
1 -54 4 -58 24 -5 28 2 38 32 48 18 5 22 4 16 -6 -5 -8 1 -6 12 4 15 13 29 16
49 12 22 -5 25 -4 14 4 -13 9 -12 11 5 12 11 1 26 2 32 2 7 -1 10 3 7 8 -3 5
2 9 10 9 12 0 110 51 125 66 2 2 -113 4 -257 4 l-262 0 0 -117z"/>
<path d="M739 2503 c0 -15 -2 -37 -4 -48 -3 -11 -5 -69 -6 -130 0 -67 -5 -116
-12 -124 -8 -10 -8 -13 -1 -8 17 10 18 -344 1 -355 -9 -6 -9 -8 1 -8 6 0 12
-11 12 -24 0 -13 -6 -27 -12 -29 -10 -4 -10 -6 0 -6 8 -1 12 -24 12 -79 0 -49
-5 -83 -12 -91 -7 -8 -8 -11 -2 -8 8 5 11 -9 11 -43 0 -34 -3 -48 -11 -43 -6
3 -5 0 2 -8 7 -7 12 -39 12 -75 0 -41 -4 -64 -12 -67 -10 -4 -10 -6 0 -6 6 -1
12 -12 12 -25 0 -13 -6 -27 -12 -29 -10 -4 -10 -6 0 -6 7 -1 12 -15 12 -38 l0
-37 36 40 c20 21 33 33 29 25 -6 -9 -4 -12 4 -7 6 4 9 11 6 16 -7 11 20 32 30
22 5 -4 5 -2 2 5 -9 14 41 55 56 46 6 -3 7 -1 3 5 -4 7 -2 12 4 12 6 0 8 5 5
10 -3 6 0 10 8 10 8 0 17 7 21 15 3 9 12 12 22 8 11 -4 15 -2 11 4 -4 7 14 24
43 42 27 17 50 28 50 25 0 -3 7 2 16 10 8 9 20 14 25 11 5 -4 9 -2 9 3 0 5 10
12 23 15 12 2 31 8 41 12 15 7 17 5 11 -6 -7 -11 -5 -11 10 1 12 10 42 15 86
16 57 1 66 -2 62 -15 -4 -13 -3 -13 6 1 11 16 14 16 59 0 66 -24 83 -35 85
-59 0 -12 5 -20 9 -17 4 3 5 12 2 22 -5 16 -5 16 9 0 8 -10 19 -18 26 -18 6 0
11 -6 11 -13 0 -7 9 -18 20 -25 11 -7 20 -17 20 -23 0 -5 9 -20 21 -32 11 -12
25 -41 32 -64 6 -24 14 -43 18 -43 3 0 10 -19 15 -42 11 -63 11 -72 0 -87 -8
-11 -8 -13 2 -7 15 9 14 27 15 -262 1 -129 -1 -236 -6 -239 -4 -2 -4 -9 0 -16
9 -15 11 -215 2 -249 -4 -14 -4 -29 -1 -33 3 -3 7 -27 7 -53 1 -26 5 -58 9
-70 8 -24 46 -69 46 -54 0 4 -5 13 -12 20 -9 9 -9 12 3 12 8 0 55 20 104 44
49 25 93 42 99 39 5 -3 6 -2 3 4 -7 12 49 46 63 38 6 -4 7 1 3 11 -4 11 -2 15
4 11 6 -4 14 0 17 9 4 9 9 14 12 11 4 -3 18 7 32 23 15 17 30 30 35 30 5 0 18
11 28 25 13 15 26 22 37 19 12 -4 13 -3 5 3 -9 7 -7 14 10 28 12 11 25 19 30
17 4 -1 6 1 5 5 -3 10 52 93 62 93 4 0 12 12 18 26 7 15 17 22 24 18 6 -4 8
-3 4 4 -3 6 8 35 25 64 31 52 87 169 95 198 2 8 15 55 29 104 29 106 39 187
38 321 -2 319 -126 612 -357 841 -186 185 -379 283 -666 340 -19 4 -198 9
-397 11 l-363 5 -1 -29z"/>
<path d="M470 2426 c0 -2 7 -7 16 -10 8 -3 12 -2 9 4 -6 10 -25 14 -25 6z"/>
<path d="M1210 1519 c0 -5 5 -7 10 -4 6 3 10 8 10 11 0 2 -4 4 -10 4 -5 0 -10
-5 -10 -11z"/>
<path d="M1399 1513 c-12 -16 -12 -17 2 -6 9 7 20 9 24 5 5 -4 5 -1 1 6 -9 16
-11 15 -27 -5z"/>
<path d="M1496 1442 c-3 -5 1 -9 9 -9 8 0 12 4 9 9 -3 4 -7 8 -9 8 -2 0 -6 -4
-9 -8z"/>
<path d="M1540 1426 c0 -2 8 -10 18 -17 15 -13 16 -12 3 4 -13 16 -21 21 -21
13z"/>
<path d="M1555 1380 c-3 -5 -1 -10 4 -10 6 0 11 5 11 10 0 6 -2 10 -4 10 -3 0
-8 -4 -11 -10z"/>
<path d="M1065 1364 c-92 -29 -288 -178 -328 -249 -4 -9 -8 -64 -8 -122 0 -74
-3 -109 -12 -115 -9 -6 -9 -8 1 -8 6 0 12 -11 12 -25 0 -14 -6 -25 -12 -25
-10 0 -10 -2 -1 -8 10 -6 16 -229 14 -547 0 -11 6 -39 15 -63 8 -24 11 -48 8
-54 -4 -6 -2 -8 3 -5 6 4 27 0 48 -9 32 -13 35 -17 23 -32 -12 -15 -11 -16 4
-4 9 8 23 10 29 6 8 -4 9 -3 5 4 -4 7 -1 12 9 12 10 0 13 -5 9 -12 -5 -9 -2
-9 9 1 15 12 17 11 17 -2 0 -9 4 -18 9 -21 5 -4 7 4 3 16 -5 21 -4 22 11 9 12
-9 17 -10 17 -2 0 7 5 9 11 5 12 -7 149 -11 149 -4 0 3 17 4 37 4 27 -1 37 -6
35 -15 -3 -11 -1 -12 9 -2 7 7 29 13 49 13 20 0 42 -6 49 -13 10 -10 11 -9 6
3 -4 11 2 15 20 16 14 1 22 -2 19 -7 -3 -5 0 -9 5 -9 6 0 11 4 11 9 0 4 15 8
33 7 21 -1 31 -6 29 -14 -1 -8 2 -11 7 -7 6 3 8 11 5 18 -2 7 7 19 20 27 15 8
33 32 43 59 15 40 17 87 17 400 0 352 -4 438 -23 536 -32 167 -110 234 -279
241 -61 3 -102 -1 -137 -12z"/>
<path d="M720 1200 c-9 -6 -10 -10 -3 -10 6 0 15 5 18 10 8 12 4 12 -15 0z"/>
<path d="M1976 287 c3 -10 9 -15 12 -12 3 3 0 11 -7 18 -10 9 -11 8 -5 -6z"/>
<path d="M1879 233 c-13 -16 -12 -17 4 -4 16 13 21 21 13 21 -2 0 -10 -8 -17
-17z"/>
<path d="M1786 178 c3 -5 10 -6 15 -3 13 9 11 12 -6 12 -8 0 -12 -4 -9 -9z"/>
<path d="M757 111 c-10 -14 -10 -14 4 -4 9 7 18 10 21 7 3 -3 8 -1 12 4 9 16
-24 9 -37 -7z"/>
<path d="M1375 100 c-3 -5 -1 -10 4 -10 6 0 11 5 11 10 0 6 -2 10 -4 10 -3 0
-8 -4 -11 -10z"/>
<path d="M1073 85 c0 -8 4 -12 9 -9 5 3 6 10 3 15 -9 13 -12 11 -12 -6z"/>
<path d="M1133 87 c0 -7 9 -14 20 -14 11 -1 18 -1 16 0 -2 2 -11 8 -20 15 -12
9 -16 9 -16 -1z"/>
<path d="M176 78 c3 -5 10 -6 15 -3 13 9 11 12 -6 12 -8 0 -12 -4 -9 -9z"/>
<path d="M216 78 c3 -5 10 -6 15 -3 13 9 11 12 -6 12 -8 0 -12 -4 -9 -9z"/>
<path d="M866 78 c3 -5 10 -6 15 -3 13 9 11 12 -6 12 -8 0 -12 -4 -9 -9z"/>
</g>
</svg>
