<?xml version="1.0" encoding="UTF-8" standalone="no"?>
<svg
   width="32"
   height="32"
   version="1.1"
   id="svg16"
   sodipodi:docname="logo-dh.svg"
   inkscape:version="1.2 (dc2aedaf03, 2022-05-15)"
   xmlns:inkscape="http://www.inkscape.org/namespaces/inkscape"
   xmlns:sodipodi="http://sodipodi.sourceforge.net/DTD/sodipodi-0.dtd"
   xmlns:xlink="http://www.w3.org/1999/xlink"
   xmlns="http://www.w3.org/2000/svg"
   xmlns:svg="http://www.w3.org/2000/svg">
  <sodipodi:namedview
     id="namedview18"
     pagecolor="#ffffff"
     bordercolor="#999999"
     borderopacity="1"
     inkscape:showpageshadow="0"
     inkscape:pageopacity="0"
     inkscape:pagecheckerboard="0"
     inkscape:deskcolor="#d1d1d1"
     showgrid="false"
     inkscape:zoom="4.6827651"
     inkscape:cx="1.0677452"
     inkscape:cy="1.3880688"
     inkscape:window-width="1920"
     inkscape:window-height="991"
     inkscape:window-x="-9"
     inkscape:window-y="-9"
     inkscape:window-maximized="1"
     inkscape:current-layer="g14" />
  <style
     id="style2">@media (prefers-color-scheme:dark){.a{fill:#f0f0f0}}</style>
  <defs
     id="defs10">
    <radialGradient
       xlink:href="#a"
       id="b"
       cx="16"
       cy="8.11"
       fx="16"
       fy="8.11"
       r="15"
       gradientUnits="userSpaceOnUse"
       gradientTransform="translate(-8.354 -4.234) scale(1.5221)" />
    <linearGradient
       id="a">
      <stop
         style="stop-color:#88dc00;stop-opacity:1;"
         offset="0"
         id="stop5" />
      <stop
         style="stop-color:#5fa000;stop-opacity:1;"
         offset="1"
         id="stop7" />
    </linearGradient>
  </defs>
  <g
     style="display:inline"
     id="g14">
    <path
       class="a"
       style="display:inline;opacity:1;fill:url(#b);fill-opacity:1;fill-rule:evenodd"
       d="M1 1v30h3a2 2 0 0 0 2-2V5c0-1-1-1-2-1V3c2 0 3-1 3-2Zm8 0v16c5-7 12-4 12 2v11.143C26.825 28.083 31 22.53 31 16c0-8.284-6.716-15-15-15Zm5.322 14.215C12.692 15.266 10.75 16.25 9 18v11a2 2 0 0 0 2 2h5a2 2 0 0 0 2-2v-9c0-3.375-1.582-4.851-3.678-4.785z"
       id="path12" />
  </g>
</svg>
